<?xml version="1.0" encoding="UTF-8"?>
<svg version="1.1" xmlns="http://www.w3.org/2000/svg" width="225" height="225">
<path d="M0 0 C74.25 0 148.5 0 225 0 C225 74.25 225 148.5 225 225 C150.75 225 76.5 225 0 225 C0 150.75 0 76.5 0 0 Z " fill="#FDFDFD" transform="translate(0,0)"/>
<path d="M0 0 C23.1 0 46.2 0 70 0 C70 0.33 70 0.66 70 1 C69.43152344 1.12375 68.86304687 1.2475 68.27734375 1.375 C61.52990173 3.17732174 57.88362954 6.22972089 54 12 C50.93132593 18.40418937 51.27010006 24.55370196 53.5 31.125 C55.75168977 36.36280166 59.07058315 39.25693641 64 42 C70.22582781 44.07527594 77.55599442 44.12032385 83.5 41.1875 C86.13795993 39.64319429 88.64890352 37.95924706 91 36 C91.99 38.475 91.99 38.475 93 41 C91.515 41.495 91.515 41.495 90 42 C90 44.64 90 47.28 90 50 C87 51 87 51 83.875 49.5625 C78.89745615 47.29902743 74.1006324 47.04944116 68.859375 48.65625 C63.72231857 50.93067193 60.00000349 54.25233093 57 59 C56.55140815 60.47584065 56.11429736 61.95520978 55.6875 63.4375 C53.62328789 68.77692865 49.17801291 70.33870725 44.25 72.5625 C41.51519084 73.75587631 38.77048008 74.88999324 36 76 C37.5904512 80.3633321 39.74175922 84.24786385 42.0625 88.25 C42.42666016 88.88679688 42.79082031 89.52359375 43.16601562 90.1796875 C44.83259774 93.27139044 44.83259774 93.27139044 47 96 C47.17977054 97.67259859 47.29996208 99.35167858 47.39453125 101.03125 C47.46349609 102.07023437 47.53246094 103.10921875 47.60351562 104.1796875 C47.74083451 106.36138942 47.86872887 108.54370883 47.98632812 110.7265625 C48.5322552 118.59177732 49.91042533 125.23458087 55 131.4375 C56.93349304 132.94804143 58.79831255 133.94043792 61 135 C61.8357856 167.12631261 61.8357856 167.12631261 57 178 C56.73155273 178.62583984 56.46310547 179.25167969 56.18652344 179.89648438 C52.81374553 187.64304183 48.92858163 194.40710727 43.5625 200.9375 C40.1292331 205.1287526 37.69385037 208.53904886 37.68359375 214.12890625 C38.16617842 216.9827094 39.13723322 218.80459629 41 221 C45.30009852 223.86673235 48.96052127 223.94020126 54 223 C57.30289712 221.21448551 59.54607053 218.81409524 62 216 C62.73089844 215.16210938 63.46179687 214.32421875 64.21484375 213.4609375 C71.80579796 204.04036869 76.63258884 193.21480957 81 182 C81.33 182 81.66 182 82 182 C81.72195718 190.36908892 80.4594074 197.74970136 77.83984375 205.7109375 C76.664256 210.31486721 76.30821495 214.30896988 78.125 218.75 C80.42190885 221.50629062 82.72220315 222.61604133 86 224 C86 224.33 86 224.66 86 225 C57.62 225 29.24 225 0 225 C0 150.75 0 76.5 0 0 Z " fill="#FDFDFD" transform="translate(0,0)"/>
<path d="M0 0 C1.875 0.3125 1.875 0.3125 4 1 C4.99 2.485 4.99 2.485 6 4 C8.05925139 4.72382467 8.05925139 4.72382467 10 5 C10.33 6.65 10.66 8.3 11 10 C8.00265117 11.13215078 5.00167493 12.25437469 2 13.375 C1.16082031 13.69210938 0.32164062 14.00921875 -0.54296875 14.3359375 C-5.65034877 16.23635797 -10.68742288 17.78253441 -16 19 C-16 20.32 -16 21.64 -16 23 C-16.97582031 23.27972656 -17.95164062 23.55945313 -18.95703125 23.84765625 C-26.56911036 25.87774592 -26.56911036 25.87774592 -31.875 31.1875 C-32.431875 33.0746875 -32.431875 33.0746875 -33 35 C-37.86902857 42.50289514 -44.78352954 50.48273036 -53.80078125 52.68359375 C-54.88939453 52.84021484 -54.88939453 52.84021484 -56 53 C-55.67 52.319375 -55.34 51.63875 -55 50.9375 C-53.7695727 47.3231198 -53.52533809 44.7972953 -54 41 C-55.98783437 38.08036827 -57.4314697 36.38897022 -60.9375 35.51953125 C-64.76423336 35.25137001 -66.52336285 35.63684788 -69.625 38 C-70.93594183 39.65592653 -72.23241432 41.32500719 -73.4609375 43.04296875 C-78.6512931 50.27521552 -78.6512931 50.27521552 -83 51 C-88.83421286 51.10058988 -91.76114884 49.67469401 -96.5625 46.375 C-100.83717946 43.48462475 -100.83717946 43.48462475 -105.9375 42.8125 C-109.32053302 44.12428832 -110.91453516 45.03222312 -113 48 C-114.13718557 51.48736907 -114.14633689 53.45967919 -113.1875 57 C-108.41953658 63.53892127 -100.48233329 66.5058889 -93 69 C-93.311712 71.52093298 -93.62434902 74.0417457 -93.9375 76.5625 C-94.02451172 77.26697266 -94.11152344 77.97144531 -94.20117188 78.69726562 C-95.61796357 90.08407292 -95.61796357 90.08407292 -96.51953125 94.60546875 C-97.52270466 103.44677044 -93.34107663 109.02400349 -88.78076172 116.15209961 C-74.3913532 138.89890715 -70.16928425 167.09945986 -75.75 193.375 C-79.52096589 209.52096589 -79.52096589 209.52096589 -84.6875 214.6875 C-89.12551634 216.4459593 -92.45284955 216.42098452 -97 215 C-100.50724448 212.96141415 -102.68867705 210.93396885 -104 207 C-104.28195758 201.97875538 -103.61685772 198.07514057 -102.0625 193.3125 C-100.10099245 186.84576311 -99.24680807 180.73786029 -99 174 C-99.29132813 174.81082031 -99.58265625 175.62164062 -99.8828125 176.45703125 C-104.28091855 188.33744979 -109.51440502 198.51799045 -118 208 C-118.639375 208.71929687 -119.27875 209.43859375 -119.9375 210.1796875 C-123.4798017 213.73627268 -126.09739123 215.46344573 -131.1875 215.75 C-134.92593586 215.48009756 -135.90987092 215.0694745 -139 212.6875 C-142.44958534 208.05211971 -143.50338031 206.09083285 -142.73046875 200.453125 C-141.62417422 196.73786849 -139.4472715 194.300468 -136.96875 191.375 C-124.30784485 176.10152712 -119.65563856 159.25987832 -119.3125 139.75 C-119.27922211 138.4075211 -119.24472338 137.06507189 -119.20898438 135.72265625 C-119.12738148 132.48185538 -119.05794888 129.2412953 -119 126 C-120.43520996 125.55188965 -120.43520996 125.55188965 -121.89941406 125.09472656 C-125.05051064 123.98216616 -125.97141451 123.45442452 -127.75 120.75 C-128.13671875 120.18796875 -128.5234375 119.6259375 -128.921875 119.046875 C-131.79368235 113.59460308 -132.22274257 108.64897332 -132.48022461 102.59692383 C-133.02273076 90.75784784 -134.61969681 83.30941215 -142 74 C-143.81640625 71.35546875 -143.81640625 71.35546875 -145 69 C-144 66 -144 66 -140.69140625 64.17578125 C-139.32000027 63.54395017 -137.94341651 62.92326547 -136.5625 62.3125 C-135.86833984 61.99216797 -135.17417969 61.67183594 -134.45898438 61.34179688 C-129.30103945 59 -129.30103945 59 -127 59 C-126.938125 58.34 -126.87625 57.68 -126.8125 57 C-124.58699725 48.78275908 -118.87122574 42.82018332 -111.625 38.625 C-104.63724692 36.96124927 -99.36099579 37.88441023 -93 41 C-92.34 41 -91.68 41 -91 41 C-90.67 38.36 -90.34 35.72 -90 33 C-84.43458881 32.87351338 -84.43458881 32.87351338 -82.03823853 33.57096863 C-79.6197684 34.08003542 -78.4502303 33.7508874 -76.13818359 32.92700195 C-75.38616165 32.66493454 -74.63413971 32.40286713 -73.85932922 32.13285828 C-73.04723495 31.83764786 -72.23514069 31.54243744 -71.3984375 31.23828125 C-70.54086349 30.93610184 -69.68328949 30.63392242 -68.79972839 30.32258606 C-65.98785599 29.32914795 -63.18155075 28.32086329 -60.375 27.3125 C-58.43908226 26.62577028 -56.50279969 25.94006818 -54.56616211 25.25537109 C-50.6248822 23.86007559 -46.68576669 22.4589245 -42.74853516 21.05224609 C-35.09415964 18.31759006 -27.43032983 15.60985589 -19.76568604 12.90414429 C-17.59658869 12.13705527 -15.42876929 11.36645117 -13.26123047 10.5949707 C-11.94629362 10.12840511 -10.63135248 9.66185164 -9.31640625 9.1953125 C-8.18662354 8.79328613 -7.05684082 8.39125977 -5.89282227 7.97705078 C-3.60019073 7.20271443 -1.35759289 6.53283392 1 6 C0.67 4.02 0.34 2.04 0 0 Z " fill="#020202" transform="translate(180,9)"/>
<path d="M0 0 C3.8733213 2.90258817 6.16826955 6.18105477 7.19921875 10.8671875 C8.02445371 18.26373786 7.832175 24.79828574 3.19921875 30.8671875 C-1.07203736 35.40160156 -5.31012104 38.45312298 -11.6328125 39.203125 C-18.25628579 39.2899333 -23.39200124 38.91748323 -28.80078125 34.8671875 C-33.94920972 29.83316855 -36.85044651 24.08113172 -37.17578125 16.8671875 C-36.82094806 9.61439703 -34.14528537 4.26068498 -28.82421875 -0.65625 C-19.41910667 -7.5194399 -9.3411494 -5.87621112 0 0 Z " fill="#030303" transform="translate(87.80078125,5.1328125)"/>
<path d="M0 0 C1.875 0.3125 1.875 0.3125 4 1 C4.99 2.485 4.99 2.485 6 4 C8.05925139 4.72382467 8.05925139 4.72382467 10 5 C10.495 7.475 10.495 7.475 11 10 C8.00265117 11.13215078 5.00167493 12.25437469 2 13.375 C1.16082031 13.69210938 0.32164062 14.00921875 -0.54296875 14.3359375 C-5.65034877 16.23635797 -10.68742288 17.78253441 -16 19 C-16 20.32 -16 21.64 -16 23 C-16.97582031 23.27972656 -17.95164062 23.55945313 -18.95703125 23.84765625 C-26.56911036 25.87774592 -26.56911036 25.87774592 -31.875 31.1875 C-32.431875 33.0746875 -32.431875 33.0746875 -33 35 C-37.86902857 42.50289514 -44.78352954 50.48273036 -53.80078125 52.68359375 C-54.88939453 52.84021484 -54.88939453 52.84021484 -56 53 C-55.67 52.319375 -55.34 51.63875 -55 50.9375 C-53.7695727 47.3231198 -53.52533809 44.7972953 -54 41 C-55.98783437 38.08036827 -57.4314697 36.38897022 -60.9375 35.51953125 C-64.76423336 35.25137001 -66.52336285 35.63684788 -69.625 38 C-70.93594183 39.65592653 -72.23241432 41.32500719 -73.4609375 43.04296875 C-78.6512931 50.27521552 -78.6512931 50.27521552 -83 51 C-89.85473549 51.11818509 -93.89844561 48.51377793 -99.484375 44.69140625 C-101.61321339 43.26005994 -103.67916643 42.07907916 -106 41 C-104.8125 39.4375 -104.8125 39.4375 -103 38 C-100.75 38.1875 -100.75 38.1875 -98 39 C-96.1128125 39.5259375 -96.1128125 39.5259375 -94.1875 40.0625 C-93.135625 40.371875 -92.08375 40.68125 -91 41 C-90.67 38.36 -90.34 35.72 -90 33 C-84.43458881 32.87351338 -84.43458881 32.87351338 -82.03823853 33.57096863 C-79.6197684 34.08003542 -78.4502303 33.7508874 -76.13818359 32.92700195 C-75.38616165 32.66493454 -74.63413971 32.40286713 -73.85932922 32.13285828 C-73.04723495 31.83764786 -72.23514069 31.54243744 -71.3984375 31.23828125 C-70.54086349 30.93610184 -69.68328949 30.63392242 -68.79972839 30.32258606 C-65.98785599 29.32914795 -63.18155075 28.32086329 -60.375 27.3125 C-58.43908226 26.62577028 -56.50279969 25.94006818 -54.56616211 25.25537109 C-50.6248822 23.86007559 -46.68576669 22.4589245 -42.74853516 21.05224609 C-35.09415964 18.31759006 -27.43032983 15.60985589 -19.76568604 12.90414429 C-17.59658869 12.13705527 -15.42876929 11.36645117 -13.26123047 10.5949707 C-11.94629362 10.12840511 -10.63135248 9.66185164 -9.31640625 9.1953125 C-8.18662354 8.79328613 -7.05684082 8.39125977 -5.89282227 7.97705078 C-3.60019073 7.20271443 -1.35759289 6.53283392 1 6 C0.505 3.03 0.505 3.03 0 0 Z " fill="#080808" transform="translate(180,9)"/>
<path d="M0 0 C2.9375 2 2.9375 2 5 5 C5.58567534 11.91096904 2.51970049 15.5298246 -1.796875 20.703125 C-8.76704973 27.96990291 -15.41708515 31.21711261 -25.5 31.5 C-31.86801651 31.32151705 -36.58158089 30.32390416 -42 27 C-43.093125 26.34 -44.18625 25.68 -45.3125 25 C-46.199375 24.34 -47.08625 23.68 -48 23 C-49.175625 22.13375 -49.175625 22.13375 -50.375 21.25 C-52.93811867 17.70106646 -52.54835019 15.31825778 -52 11 C-49.83057949 8.22314175 -48.26618126 8.04697316 -44.8125 7.4375 C-40.20733585 8.11695045 -37.70475215 9.86169553 -34.015625 12.58984375 C-30.00819907 15.39348864 -25.73599245 15.60555629 -21 15 C-15.41583893 12.49282564 -12.75433276 8.12659746 -9.515625 3.14453125 C-6.90598001 -0.54798189 -4.33964416 -0.51054637 0 0 Z " fill="#040404" transform="translate(120,46)"/>
<path d="M0 0 C0.33 0 0.66 0 1 0 C0.72195718 8.36908892 -0.5405926 15.74970136 -3.16015625 23.7109375 C-4.335744 28.31486721 -4.69178505 32.30896988 -2.875 36.75 C-0.57809115 39.50629062 1.72220315 40.61604133 5 42 C5 42.33 5 42.66 5 43 C-9.85 43 -24.7 43 -40 43 C-39.67 42.34 -39.34 41.68 -39 41 C-38.2265625 41.08121094 -37.453125 41.16242188 -36.65625 41.24609375 C-29.182677 41.70088042 -29.182677 41.70088042 -22.8125 38.25 C-21.49297674 36.87857003 -20.22519498 35.45631695 -19 34 C-18.27167969 33.16210938 -17.54335938 32.32421875 -16.79296875 31.4609375 C-9.18686887 22.0537339 -4.36648006 11.21241866 0 0 Z " fill="#F4F4F4" transform="translate(81,182)"/>
<path d="M0 0 C2.8100346 1.79363911 4.50940468 3.01880935 6 6 C6.24250176 10.3650317 6.11804421 13.18752042 4 17 C4.495 17.99 4.495 17.99 5 19 C4.21625 19.309375 3.4325 19.61875 2.625 19.9375 C0.07669872 20.92875038 0.07669872 20.92875038 -2 22 C-0.83437227 19.66874453 0.3440499 17.4265835 1.6875 15.1875 C3.30109617 11.26876645 3.09292266 9.05942702 2 5 C-1.49124017 2.67250655 -2.89222251 2.49700684 -7 3 C-9.66729115 5.03969323 -11.11369674 7.17604657 -12.9375 10 C-15.41506837 13.6037358 -18.08471183 16.04235591 -22 18 C-28.4508031 18.55610372 -32.52628398 17.43183544 -38 14 C-38.680625 13.4225 -39.36125 12.845 -40.0625 12.25 C-43.0434687 10.32679438 -45.54688306 10.68608028 -49 11 C-49.99 11.66 -50.98 12.32 -52 13 C-52.53813681 16.22882086 -52.79005135 17.93139475 -52 21 C-47.76409055 26.64787926 -40.53777996 29.82074001 -34 32 C-31.94106379 32.22325814 -29.87766347 32.40705759 -27.8125 32.5625 C-26.72582031 32.64628906 -25.63914062 32.73007813 -24.51953125 32.81640625 C-23.27236328 32.90728516 -23.27236328 32.90728516 -22 33 C-22 33.33 -22 33.66 -22 34 C-25.63 34 -29.26 34 -33 34 C-33.33 34.66 -33.66 35.32 -34 36 C-34 35.34 -34 34.68 -34 34 C-34.87398437 33.89171875 -35.74796875 33.7834375 -36.6484375 33.671875 C-43.04907659 32.3887632 -48.86135794 28.98588192 -53.625 24.5625 C-55.42672335 21.20474285 -56 18.82206168 -56 15 C-54.39913574 11.85756275 -52.94907511 9.75271474 -50.1875 7.5625 C-46.70892429 6.6680091 -44.49136518 7.08423208 -41 8 C-39.49143007 8.95506586 -38.01337272 9.95937405 -36.5625 11 C-32.16929695 14.10064501 -29.40017443 15.08852745 -24 15 C-18.08077356 13.42959299 -15.75173235 9.19064305 -12.61328125 4.27734375 C-9.31619179 -0.37690117 -5.35666788 -0.87711521 0 0 Z " fill="#D2D2D2" transform="translate(121,44)"/>
<path d="M0 0 C0.99 0.99 1.98 1.98 3 3 C2.67 3.99 2.34 4.98 2 6 C1.34 6 0.68 6 0 6 C0 8.64 0 11.28 0 14 C-3.65116888 15.21705629 -4.74739774 14.33173242 -8.09375 12.7578125 C-10.24703508 11.81225509 -10.24703508 11.81225509 -13.75 11.5 C-17.23641796 10.96362801 -17.7845346 10.5090813 -20 8 C-18.80503906 7.85304688 -18.80503906 7.85304688 -17.5859375 7.703125 C-10.00725223 6.63362684 -5.46345909 5.46345909 0 0 Z " fill="#E6E6E6" transform="translate(90,36)"/>
<path d="M0 0 C7.23186925 -0.49029622 7.23186925 -0.49029622 10.9375 1.875 C13.64326506 4.66275794 13.96879003 5.43822049 14.1875 9.375 C14.01270078 12.75445167 13.58116352 14.15390566 12 17 C12.33 17.66 12.66 18.32 13 19 C11.824375 19.4640625 11.824375 19.4640625 10.625 19.9375 C8.07669872 20.92875038 8.07669872 20.92875038 6 22 C7.16562773 19.66874453 8.3440499 17.4265835 9.6875 15.1875 C11.30109617 11.26876645 11.09292266 9.05942702 10 5 C6.91111478 2.94074319 6.29064073 2.7609626 2.8125 2.875 C1.554375 2.91625 0.29625 2.9575 -1 3 C-0.67 2.01 -0.34 1.02 0 0 Z " fill="#DEDEDE" transform="translate(113,44)"/>
<path d="M0 0 C0.4846875 0.38671875 0.969375 0.7734375 1.46875 1.171875 C8.8716132 6.92333026 15.72030103 10.84991513 25.1875 11.5625 C26.27417969 11.64628906 27.36085938 11.73007813 28.48046875 11.81640625 C29.31191406 11.87699219 30.14335938 11.93757813 31 12 C31 12.33 31 12.66 31 13 C27.37 13 23.74 13 20 13 C19.67 13.66 19.34 14.32 19 15 C19 14.34 19 13.68 19 13 C18.12730469 12.89429687 17.25460938 12.78859375 16.35546875 12.6796875 C12.85698142 11.97103 10.41463458 10.86427211 7.3125 9.125 C6.38050781 8.61195312 5.44851562 8.09890625 4.48828125 7.5703125 C2.31548209 6.19909545 0.70345761 4.90285901 -1 3 C-0.67 2.01 -0.34 1.02 0 0 Z " fill="#CBCBCB" transform="translate(68,65)"/>
<path d="M0 0 C5.73842251 -0.20413361 10.60539047 -0.27141454 16 2 C15.67 2.99 15.34 3.98 15 5 C13.06043186 4.744398 11.12334011 4.46995354 9.1875 4.1875 C8.10855469 4.03667969 7.02960938 3.88585938 5.91796875 3.73046875 C2.93559009 2.98387597 1.85776521 2.37924316 0 0 Z " fill="#ECECEC" transform="translate(70,44)"/>
<path d="M0 0 C0.66 0 1.32 0 2 0 C0.54694849 4.11697928 -1.32645794 7.54012204 -4 11 C-6.1328125 11.671875 -6.1328125 11.671875 -8 12 C-6.85573734 10.186508 -5.70954608 8.37423275 -4.5625 6.5625 C-3.60537109 5.04849609 -3.60537109 5.04849609 -2.62890625 3.50390625 C-1 1 -1 1 0 0 Z " fill="#D8D8D8" transform="translate(110,46)"/>
<path d="M0 0 C0.66 0 1.32 0 2 0 C1.52433594 0.84304687 1.52433594 0.84304687 1.0390625 1.703125 C-0.06874525 4.15196317 -0.38975399 6.08387855 -0.625 8.75 C-0.69976562 9.54921875 -0.77453125 10.3484375 -0.8515625 11.171875 C-0.90054688 11.77515625 -0.94953125 12.3784375 -1 13 C-1.66 13 -2.32 13 -3 13 C-4.05948517 8.58547846 -4.3447529 6.65384171 -2.1875 2.5625 C-1.465625 1.716875 -0.74375 0.87125 0 0 Z " fill="#D7D7D7" transform="translate(69,53)"/>
<path d="M0 0 C1.9375 1.5625 1.9375 1.5625 3 3 C2.01 3.33 1.02 3.66 0 4 C-0.33 3.67 -0.66 3.34 -1 3 C-3.67058851 2.85884839 -6.32432238 2.95752893 -9 3 C-9 2.01 -9 1.02 -9 0 C-5.85000502 -1.57499749 -3.36459118 -0.70833498 0 0 Z " fill="#C5C5C5" transform="translate(80,52)"/>
<path d="M0 0 C2.6875 0.3125 2.6875 0.3125 5 1 C5.33 2.32 5.66 3.64 6 5 C3 6 3 6 -0.1875 4.5625 C-1.115625 4.046875 -2.04375 3.53125 -3 3 C-1.8125 1.4375 -1.8125 1.4375 0 0 Z " fill="#101010" transform="translate(77,47)"/>
<path d="M0 0 C3.96 0 7.92 0 12 0 C11.34 1.32 10.68 2.64 10 4 C10.66 4 11.32 4 12 4 C11.67 4.66 11.34 5.32 11 6 C9.72791378 5.37755401 8.45738118 4.75193233 7.1875 4.125 C6.47980469 3.77695312 5.77210937 3.42890625 5.04296875 3.0703125 C3 2 3 2 0 0 Z " fill="#E3E3E3" transform="translate(77,0)"/>
<path d="M0 0 C0.33 0 0.66 0 1 0 C0.67 4.29 0.34 8.58 0 13 C-0.99 12.01 -1.98 11.02 -3 10 C-2.890625 7.7734375 -2.890625 7.7734375 -2.25 5.375 C-2.04890625 4.57835937 -1.8478125 3.78171875 -1.640625 2.9609375 C-1 1 -1 1 0 0 Z " fill="#B3B3B3" transform="translate(81,182)"/>
<path d="M0 0 C4.12751449 0.60698743 7.3321148 2.03810791 11 4 C9.02 4.99 9.02 4.99 7 6 C5.83054208 5.19152271 4.66449539 4.37810888 3.5 3.5625 C2.8503125 3.11003906 2.200625 2.65757813 1.53125 2.19140625 C1.0259375 1.79824219 0.520625 1.40507813 0 1 C0 0.67 0 0.34 0 0 Z " fill="#D9D9D9" transform="translate(81,55)"/>
<path d="M0 0 C2.9719385 1.12451727 5.33440687 2.22293791 8 4 C5.36 4 2.72 4 0 4 C0 2.68 0 1.36 0 0 Z " fill="#E2E2E2" transform="translate(78,221)"/>
</svg>
