<?xml version="1.0" encoding="UTF-8"?>
<svg version="1.1" xmlns="http://www.w3.org/2000/svg" width="200" height="200">
<path d="M0 0 C66 0 132 0 200 0 C200 66 200 132 200 200 C134 200 68 200 0 200 C0 134 0 68 0 0 Z " fill="#FDFDFD" transform="translate(0,0)"/>
<path d="M0 0 C0.70125 0.00515625 1.4025 0.0103125 2.125 0.015625 C2.82625 0.01046875 3.5275 0.0053125 4.25 0 C6.125 0.265625 6.125 0.265625 8.125 2.265625 C9.30312115 11.85889721 7.56994198 21.69631111 6.19262695 31.18041992 C4.35826551 42.11768267 4.35826551 42.11768267 8.6796875 51.85742188 C9.39511719 52.77104492 9.39511719 52.77104492 10.125 53.703125 C10.84042969 54.65735352 10.84042969 54.65735352 11.5703125 55.63085938 C12.74037648 57.18704446 13.93069888 58.7279623 15.125 60.265625 C15.05168457 59.64743896 14.97836914 59.02925293 14.90283203 58.39233398 C12.9555966 39.42175375 12.9555966 39.42175375 17.99609375 32.6796875 C20.91160969 29.42185108 24.11997724 26.51932736 27.45898438 23.70214844 C29.4964588 21.94533432 31.22087364 20.02125105 32.9375 17.953125 C42.27083333 7.11979167 42.27083333 7.11979167 47.125 2.265625 C53.58653846 2.72716346 53.58653846 2.72716346 56.125 5.265625 C56.87513942 9.92593999 56.17746514 12.65481191 53.59765625 16.46484375 C52.47692115 17.97294814 51.33932069 19.46862672 50.1875 20.953125 C49.60081543 21.74332031 49.01413086 22.53351562 48.40966797 23.34765625 C45.76671659 26.89179417 43.06785346 30.36991422 40.22265625 33.75390625 C39.40667969 34.74777344 38.59070313 35.74164063 37.75 36.765625 C37.02039063 37.6009375 36.29078125 38.43625 35.5390625 39.296875 C33.39136776 43.80584738 34.27391748 47.4496045 35.125 52.265625 C35.3115918 53.32894043 35.49818359 54.39225586 35.69042969 55.48779297 C36.55073776 60.18056548 37.47161146 64.86059816 38.39648438 69.54101562 C40.68128461 81.43130255 40.63051367 90.45883635 34.4296875 101.203125 C25.20334993 114.65041862 11.75675346 122.30793919 -3.875 126.265625 C-6.73046875 126.37109375 -6.73046875 126.37109375 -8.875 126.265625 C-8.87371094 125.22148437 -8.87242187 124.17734375 -8.87109375 123.1015625 C-9.73155282 116.21485484 -14.24047774 110.58474497 -17.9375 104.890625 C-19.07631642 103.11304243 -20.21097312 101.33297046 -21.34117126 99.54989624 C-22.36027246 97.94571048 -23.39090952 96.34887052 -24.42211914 94.75244141 C-25.875 92.265625 -25.875 92.265625 -25.875 90.265625 C-26.6798584 90.0169165 -26.6798584 90.0169165 -27.50097656 89.76318359 C-33.41994029 87.87059558 -39.00882301 85.54196214 -44.625 82.890625 C-45.44871094 82.51679687 -46.27242188 82.14296875 -47.12109375 81.7578125 C-51.90228353 79.50965241 -55.34313863 77.30113861 -58.875 73.265625 C-59.61363281 72.47800781 -60.35226563 71.69039063 -61.11328125 70.87890625 C-61.79777344 70.11964844 -62.48226562 69.36039062 -63.1875 68.578125 C-64.23357422 67.42763672 -64.23357422 67.42763672 -65.30078125 66.25390625 C-66.875 64.265625 -66.875 64.265625 -66.875 62.265625 C-74.3912931 64.08872588 -80.42296871 67.02375762 -86.875 71.265625 C-85.82441406 71.62914063 -84.77382812 71.99265625 -83.69140625 72.3671875 C-75.75116204 75.1859742 -68.58293387 78.0110768 -61.875 83.265625 C-63.625 87.140625 -63.625 87.140625 -65.875 88.265625 C-68.01171875 87.12109375 -68.01171875 87.12109375 -70.5625 85.453125 C-74.67300615 82.88182144 -78.15495669 81.29172137 -82.875 80.265625 C-81.80185547 80.97525391 -81.80185547 80.97525391 -80.70703125 81.69921875 C-77.42325524 83.87849054 -74.1470189 86.06876197 -70.875 88.265625 C-69.9780542 88.86648926 -69.9780542 88.86648926 -69.06298828 89.47949219 C-67.28758907 90.67267546 -65.51810957 91.87417294 -63.75 93.078125 C-62.67492187 93.80644531 -61.59984375 94.53476563 -60.4921875 95.28515625 C-55.57063304 99.00937731 -55.13235705 103.27812119 -54.1484375 109.02734375 C-53.99589508 109.89196732 -53.84335266 110.75659088 -53.68618774 111.64741516 C-53.36508285 113.47844296 -53.04757743 115.31010509 -52.73339844 117.14233398 C-52.25451138 119.9268929 -51.76093501 122.70855562 -51.265625 125.49023438 C-50.95483697 127.27328222 -50.64491364 129.05648104 -50.3359375 130.83984375 C-50.18909515 131.66409348 -50.04225281 132.4883432 -49.89096069 133.33757019 C-47.66868068 146.47848527 -47.66868068 146.47848527 -50.5625 150.765625 C-52.875 152.265625 -52.875 152.265625 -55.375 152.828125 C-59.00256632 152.01192258 -59.8158306 150.32440831 -61.875 147.265625 C-62.8220224 144.57562201 -63.61093032 142.01146902 -64.3125 139.26171875 C-64.62272095 138.12126854 -64.62272095 138.12126854 -64.93920898 136.95777893 C-65.81837411 133.7255237 -66.6692912 130.48604773 -67.52050781 127.24633789 C-68.14847702 124.87334803 -68.79244708 122.50511147 -69.4375 120.13671875 C-69.62304443 119.40746689 -69.80858887 118.67821503 -69.99975586 117.92686462 C-71.71011953 111.66798185 -74.49516114 108.84795646 -79.984375 105.6875 C-80.73847656 105.24921875 -81.49257812 104.8109375 -82.26953125 104.359375 C-83.43548828 103.69421875 -83.43548828 103.69421875 -84.625 103.015625 C-85.41777344 102.55671875 -86.21054688 102.0978125 -87.02734375 101.625 C-88.97340405 100.49956754 -90.92259896 99.38000916 -92.875 98.265625 C-92.80804932 98.98105469 -92.74109863 99.69648437 -92.67211914 100.43359375 C-92.38796793 103.70887998 -92.16237387 106.98575739 -91.9375 110.265625 C-91.83115234 111.39097656 -91.72480469 112.51632813 -91.61523438 113.67578125 C-91.27006673 119.29708282 -91.09449271 123.19196128 -94.90234375 127.578125 C-96.20642939 128.82863155 -97.53126151 130.0578283 -98.875 131.265625 C-100.12533769 132.58887867 -101.36495334 133.92234417 -102.59375 135.265625 C-104.4829332 137.26823742 -106.3762215 139.2669145 -108.26953125 141.265625 C-112.09576593 145.32159219 -115.80462197 149.44679415 -119.41210938 153.69921875 C-121.5475364 155.98575075 -122.65984668 156.24731408 -125.8125 156.515625 C-128.875 156.265625 -128.875 156.265625 -130.75 155.203125 C-132.58249178 152.04716694 -132.29098473 149.875649 -131.875 146.265625 C-130.18638273 143.21995053 -128.0328259 140.62646145 -125.8125 137.953125 C-124.61884021 136.44997381 -123.42612589 134.94607133 -122.234375 133.44140625 C-121.65623047 132.72291504 -121.07808594 132.00442383 -120.48242188 131.26416016 C-118.46402483 128.75465253 -116.48404768 126.22518603 -114.5625 123.640625 C-114.03011719 122.94710937 -113.49773437 122.25359375 -112.94921875 121.5390625 C-110.09324404 115.49478148 -112.49843769 108.20515156 -113.8125 101.953125 C-113.99490234 101.04755859 -114.17730469 100.14199219 -114.36523438 99.20898438 C-115.22529751 94.60650983 -115.22529751 94.60650983 -116.875 90.265625 C-119.515 94.885625 -122.155 99.505625 -124.875 104.265625 C-126.525 103.605625 -128.175 102.945625 -129.875 102.265625 C-129.34822577 97.3365233 -127.0651882 94.03008542 -124.375 90.015625 C-123.95863281 89.37882812 -123.54226562 88.74203125 -123.11328125 88.0859375 C-120.0769604 83.4675854 -120.0769604 83.4675854 -118.875 82.265625 C-118.76675157 80.6629468 -118.68929355 79.05816752 -118.625 77.453125 C-117.49143572 64.37483865 -110.29419556 52.62274737 -100.4375 44.140625 C-92.8931697 38.45589562 -83.20013013 32.31766954 -73.875 30.265625 C-73.276875 31.3175 -72.67875 32.369375 -72.0625 33.453125 C-68.40838348 39.31213335 -63.79216043 44.39657247 -59.29589844 49.61083984 C-57.0874423 52.18281849 -54.91383195 54.78089158 -52.75 57.390625 C-51.66332031 58.69386719 -51.66332031 58.69386719 -50.5546875 60.0234375 C-48.875 62.265625 -48.875 62.265625 -47.875 65.265625 C-45.10107746 66.37854883 -45.10107746 66.37854883 -41.875 67.265625 C-15.26798784 77.6562307 -15.26798784 77.6562307 -8.96484375 90.625 C-8.60519531 91.49640625 -8.24554688 92.3678125 -7.875 93.265625 C-6.616875 93.12253906 -5.35875 92.97945313 -4.0625 92.83203125 C-3.35480469 92.75154541 -2.64710938 92.67105957 -1.91796875 92.58813477 C0.61766409 92.18785143 2.80663532 91.35235844 5.125 90.265625 C2.67901955 87.7177287 0.11479532 85.37600322 -2.5625 83.078125 C-9.36031268 77.15540388 -16.20380041 71.05095765 -20.875 63.265625 C-20.545 62.275625 -20.215 61.285625 -19.875 60.265625 C-17.8125 59.578125 -17.8125 59.578125 -15.875 59.265625 C-15.08996094 60.20664063 -14.30492188 61.14765625 -13.49609375 62.1171875 C-12.4351911 63.37524905 -11.37397639 64.63304749 -10.3125 65.890625 C-9.79880859 66.50808594 -9.28511719 67.12554687 -8.75585938 67.76171875 C-5.12321929 72.04868531 -1.24661443 75.73725369 3.125 79.265625 C1.02597056 75.90222556 -1.07365501 72.53919911 -3.17382812 69.17651367 C-4.23859579 67.47138778 -5.3028942 65.76596889 -6.3671875 64.06054688 C-7.0375 62.98740234 -7.7078125 61.91425781 -8.3984375 60.80859375 C-9.01638184 59.81883545 -9.63432617 58.82907715 -10.27099609 57.80932617 C-11.44662268 55.94496492 -12.6523999 54.09952515 -13.875 52.265625 C-14.41354127 42.26343584 -11.47103596 32.19979219 -9.06420898 22.58666992 C-8.42977638 20.04720945 -7.81450305 17.50361484 -7.20117188 14.95898438 C-6.80319075 13.33826933 -6.40414247 11.71781587 -6.00390625 10.09765625 C-5.82050186 9.33943069 -5.63709747 8.58120514 -5.44813538 7.80000305 C-3.60338673 0.51047979 -3.60338673 0.51047979 0 0 Z " fill="#030303" transform="translate(137.875,17.734375)"/>
<path d="M0 0 C4.36325168 1.8342829 7.29185785 3.98204565 10 7.875 C11.41726221 12.3039444 11.97989154 15.73033669 10.0859375 20.1171875 C7.49942093 24.67279411 5.15062626 27.38411725 0 29 C-4.48656951 29.71029858 -7.25241112 29.39495262 -11.3125 27.25 C-14.75322428 24.36939363 -16.58195956 22.25412132 -18 18 C-18.3823833 13.33492377 -18.47936179 10.95872359 -16.375 6.75 C-11.76658834 1.4139444 -7.19913858 -1.54747839 0 0 Z " fill="#060606" transform="translate(86,30)"/>
<path d="M0 0 C4.40608743 2.16298837 7.1987497 4.39680479 9 9 C9.68426057 14.04325384 9.5739862 17.83076884 7.3125 22.4375 C4.28115306 25.79656012 2.25860352 27.69355631 -2.33203125 28.31640625 C-8.04951809 28.58213652 -11.60250453 27.96847152 -16 24 C-19.38570467 20.16286804 -19.51291172 16.36598538 -19.3515625 11.4375 C-18.67904883 6.77473854 -16.30117669 4.14809708 -12.875 1.125 C-8.55651358 -0.56484251 -4.5732948 -0.65960983 0 0 Z " fill="#030303" transform="translate(115,124)"/>
</svg>
