<?xml version="1.0" encoding="UTF-8"?>
<svg version="1.1" xmlns="http://www.w3.org/2000/svg" width="247" height="204">
<path d="M0 0 C81.51 0 163.02 0 247 0 C247 67.32 247 134.64 247 204 C165.49 204 83.98 204 0 204 C0 136.68 0 69.36 0 0 Z " fill="#F5F5F5" transform="translate(0,0)"/>
<path d="M0 0 C3.01065345 1.91682597 5.96660445 3.90560157 8.9140625 5.91796875 C9.75034683 6.48371613 10.58663116 7.0494635 11.44825745 7.63235474 C15.12697384 10.12259204 18.79842105 12.6233882 22.46768188 15.12753296 C32.85370993 22.2153525 43.25245823 29.2267283 53.94140625 35.8515625 C72.23025345 47.27709493 86.98734582 56.95903204 96.80957031 76.75537109 C97.94882636 79.05618606 97.94882636 79.05618606 99.62426758 81.10424805 C101.62131559 83.85616957 101.43361835 86.07987378 101.4375 89.4375 C101.45683594 90.54996094 101.47617188 91.66242188 101.49609375 92.80859375 C100.90316753 96.62293017 99.53640568 98.16175718 97 101 C96.1022204 103.6933388 95.68807888 105.93417348 95.3515625 108.734375 C95.23466064 109.68989258 95.11775879 110.64541016 94.99731445 111.62988281 C94.87445068 112.65952148 94.75158691 113.68916016 94.625 114.75 C93.83636158 121.26651381 93.04276878 127.77985364 92.13671875 134.28125 C89.44678821 148.66033591 89.44678821 148.66033591 90 163 C92.94709685 166.86852167 96.94563814 168.71155221 101.25 170.75 C101.8996875 171.06582031 102.549375 171.38164062 103.21875 171.70703125 C104.80893701 172.47873965 106.40399229 173.24040275 108 174 C108 174.33 108 174.66 108 175 C98.59278813 175.09925546 89.36430028 175.05513243 80 174 C80.66 169.38 81.32 164.76 82 160 C80.453125 159.54625 78.90625 159.0925 77.3125 158.625 C73.78367932 157.58987927 70.40661354 156.38261092 67 155 C66.19707615 141.54432672 65.81357723 128.12927959 65.81469727 114.6496582 C65.81246815 111.6445584 65.79409166 108.63980305 65.77539062 105.63476562 C65.77246277 103.69791789 65.77047392 101.76106846 65.76953125 99.82421875 C65.76234573 98.93876877 65.75516022 98.05331879 65.74775696 97.14103699 C65.76663768 92.01156865 66.44065917 87.87966812 68 83 C67.76322362 78.8108795 66.44771736 76.96438311 63.4375 74.125 C62.79683594 73.50882812 62.15617187 72.89265625 61.49609375 72.2578125 C60.08674371 70.98300135 58.66788191 69.7180138 57.21923828 68.48803711 C53.62907398 65.42599309 50.28552993 62.30848606 47.125 58.80078125 C36.52832181 47.16359904 25.68021797 40.26694853 11.25805664 34.04296875 C9 33 9 33 6 31 C5.671875 28.828125 5.671875 28.828125 5.75 26.25 C5.77578125 25.36054687 5.8015625 24.47109375 5.828125 23.5546875 C6.02324004 20.65456847 6.40112931 17.8446358 7 15 C6.14921875 14.77957031 5.2984375 14.55914063 4.421875 14.33203125 C0.30776085 12.73053248 -2.44318961 10.54960141 -5.75 7.6875 C-6.32621094 7.21376953 -6.90242188 6.74003906 -7.49609375 6.25195312 C-10.78052535 3.45367865 -12.81196642 1.18096434 -14 -3 C-8.57723932 -6.67348304 -4.86219924 -2.98536195 0 0 Z " fill="#020202" transform="translate(52,17)"/>
<path d="M0 0 C3.56279886 0.61663826 5.68865378 2.04163207 8.68994141 3.97338867 C14.17671469 7.37920665 19.90055918 10.39696604 25.5625 13.5 C26.83019132 14.19705981 28.09777012 14.89432427 29.36523438 15.59179688 C31.83131287 16.94824494 34.29868571 18.30228736 36.76733398 19.65405273 C39.00824068 20.88203504 41.2474768 22.11307347 43.48461914 23.34790039 C44.4564917 23.88278076 45.42836426 24.41766113 46.4296875 24.96875 C47.2738623 25.43474609 48.11803711 25.90074219 48.98779297 26.38085938 C50.98706964 27.42516102 52.96571234 28.30103906 55.0625 29.125 C58.79981191 30.81045439 61.21860009 32.82684642 64.25 35.5625 C64.435625 34.1703125 64.435625 34.1703125 64.625 32.75 C64.76615234 31.80640625 64.76615234 31.80640625 64.91015625 30.84375 C65.16428365 29.13788331 65.39792309 27.42894202 65.62109375 25.71875 C65.83958984 24.24921875 65.83958984 24.24921875 66.0625 22.75 C66.19269531 21.81542969 66.32289063 20.88085938 66.45703125 19.91796875 C67.25 17.5625 67.25 17.5625 69.08984375 16.26171875 C74.12372963 14.63230542 78.6202784 15.00268174 83.375 17.125 C88.46479651 19.93593298 92.40370881 24.02362643 94.25 29.5625 C94.85294612 35.49147014 94.15292348 38.87749964 90.75390625 43.796875 C88.50440087 46.43785275 86.31101643 47.92995791 83.25 49.5625 C82.59 49.5625 81.93 49.5625 81.25 49.5625 C81.62253906 50.58730469 81.99507813 51.61210938 82.37890625 52.66796875 C82.85741019 54.02842113 83.33523938 55.38911096 83.8125 56.75 C84.05935547 57.42353516 84.30621094 58.09707031 84.56054688 58.79101562 C85.97088575 62.86312082 86.47034928 65.44236265 85.25 69.5625 C81.45146829 75.46022028 74.89864715 83.09318987 68.07177734 85.25097656 C63.70494659 85.83506864 59.57681497 85.39103904 55.25 84.5625 C55.58 81.5925 55.91 78.6225 56.25 75.5625 C52.62 76.5525 48.99 77.5425 45.25 78.5625 C37.98889507 68.73865215 31.11439715 58.66579883 24.25 48.5625 C26.61543716 46.19706284 28.82067205 45.28708677 31.875 43.9375 C32.87789062 43.49148437 33.88078125 43.04546875 34.9140625 42.5859375 C35.68492187 42.24820313 36.45578125 41.91046875 37.25 41.5625 C35.60734552 40.32565241 33.96441468 39.08917061 32.3203125 37.85424805 C30.88729703 36.77636976 29.45633378 35.69575815 28.02734375 34.61254883 C24.35522974 31.84028054 20.66287353 29.13513471 16.84765625 26.5625 C16.15873291 26.08852783 15.46980957 25.61455566 14.76000977 25.1262207 C13.44408987 24.22523194 12.11533405 23.34264432 10.77319336 22.48120117 C8.96875 21.23046875 8.96875 21.23046875 6.25 18.5625 C5.84375 14.73828125 5.84375 14.73828125 6.25 11.5625 C5.71375 11.8925 5.1775 12.2225 4.625 12.5625 C1.59303035 13.8391188 -0.49003936 13.97866519 -3.75 13.5625 C-6.0651023 11.47890793 -6.65276165 10.11814772 -7.1875 7.0625 C-6.42271812 2.69231785 -4.28534181 0.87654719 0 0 Z " fill="#020202" transform="translate(115.75,20.4375)"/>
<path d="M0 0 C1.00486895 2.95670218 2.00306024 5.91561577 3 8.875 C3.28617188 9.71675781 3.57234375 10.55851562 3.8671875 11.42578125 C4.13789063 12.23144531 4.40859375 13.03710938 4.6875 13.8671875 C5.06455078 14.98262939 5.06455078 14.98262939 5.44921875 16.12060547 C6 18 6 18 6 20 C4.02 20.33 2.04 20.66 0 21 C-1.00380916 18.20964954 -2.0031945 15.41785145 -3 12.625 C-3.42925781 11.43390625 -3.42925781 11.43390625 -3.8671875 10.21875 C-4.13789063 9.45820312 -4.40859375 8.69765625 -4.6875 7.9140625 C-4.93886719 7.2123291 -5.19023437 6.5105957 -5.44921875 5.78759766 C-6 4 -6 4 -6 2 C-2.25 0 -2.25 0 0 0 Z " fill="#080808" transform="translate(173,110)"/>
<path d="M0 0 C1.98 0 3.96 0 6 0 C6.10150789 4.92947689 5.74242572 9.56533119 5 14.4375 C4.814375 15.67371094 4.62875 16.90992188 4.4375 18.18359375 C4.293125 19.11300781 4.14875 20.04242188 4 21 C2.02 20.67 0.04 20.34 -2 20 C-1.47594437 13.30992818 -0.89536075 6.6512513 0 0 Z " fill="#090909" transform="translate(155,115)"/>
<path d="M0 0 C2.9375 0.8125 2.9375 0.8125 4.9375 2.8125 C5.3125 5.25 5.3125 5.25 4.9375 7.8125 C3.25 9.6875 3.25 9.6875 0.9375 10.8125 C-2.43286311 10.57175978 -3.65048021 10.22451979 -6.0625 7.8125 C-6.4258156 4.97863833 -6.4193671 3.40727849 -4.9375 0.9375 C-3.0625 -0.1875 -3.0625 -0.1875 0 0 Z " fill="#090909" transform="translate(162.0625,101.1875)"/>
<path d="M0 0 C1.17539996 0.92652701 2.34010577 1.86663387 3.5 2.8125 C4.1496875 3.33457031 4.799375 3.85664062 5.46875 4.39453125 C7 6 7 6 7 9 C4.03 8.67 1.06 8.34 -2 8 C-1.125 1.125 -1.125 1.125 0 0 Z " fill="#E7E7E7" transform="translate(154,106)"/>
</svg>
