<?xml version="1.0" encoding="UTF-8"?>
<svg version="1.1" xmlns="http://www.w3.org/2000/svg" width="238" height="211">
<path d="M0 0 C78.54 0 157.08 0 238 0 C238 69.63 238 139.26 238 211 C159.46 211 80.92 211 0 211 C0 141.37 0 71.74 0 0 Z " fill="#FAFCFA" transform="translate(0,0)"/>
<path d="M0 0 C4.78627504 1.65190023 7.64401775 6.60363834 10.20703125 10.76171875 C10.20703125 11.42171875 10.20703125 12.08171875 10.20703125 12.76171875 C10.86703125 12.76171875 11.52703125 12.76171875 12.20703125 12.76171875 C12.53703125 13.42171875 12.86703125 14.08171875 13.20703125 14.76171875 C16.27134234 15.27180753 19.30569111 15.59830186 22.39648438 15.88476562 C25.69199734 16.24587317 28.14643426 16.72953173 31.08984375 18.29296875 C35.3659622 20.30778145 39.22385607 20.24917347 43.89453125 20.32421875 C45.58613203 20.35868911 47.27759151 20.40131417 48.96875 20.453125 C49.71084717 20.46545166 50.45294434 20.47777832 51.2175293 20.49047852 C53.20703125 20.76171875 53.20703125 20.76171875 56.20703125 22.76171875 C57.86252656 23.14671766 59.52927455 23.4896501 61.20703125 23.76171875 C60.88734375 22.90835938 60.56765625 22.055 60.23828125 21.17578125 C58.58525827 15.70327336 58.39091163 10.41465739 59.20703125 4.76171875 C61.90695761 1.47802453 63.68921802 0.94610495 67.84375 0.44140625 C73.32572544 0.21704163 77.5537083 0.57786621 82.20703125 3.76171875 C83.94457331 7.23680286 83.09025179 11.06945845 82.20703125 14.76171875 C80.91469518 16.13482582 79.58265979 17.47206699 78.20703125 18.76171875 C77.39937247 22.40893571 77.39937247 22.40893571 77.20703125 25.76171875 C78.35171875 26.07109375 78.35171875 26.07109375 79.51953125 26.38671875 C92.79787171 31.33796435 92.79787171 31.33796435 95.76953125 36.44921875 C95.98609375 38.08890625 95.98609375 38.08890625 96.20703125 39.76171875 C96.53270636 41.61724586 96.86675252 43.47131413 97.20703125 45.32421875 C97.42359375 46.68740234 97.42359375 46.68740234 97.64453125 48.078125 C98.12001304 50.78036187 98.12001304 50.78036187 99.26171875 53.23828125 C100.36240617 56.1764799 100.4073436 58.44875614 100.33203125 61.57421875 C100.31398438 62.55003906 100.2959375 63.52585938 100.27734375 64.53125 C100.25414062 65.26730469 100.2309375 66.00335938 100.20703125 66.76171875 C98.55703125 67.09171875 96.90703125 67.42171875 95.20703125 67.76171875 C85.20703125 55.43295163 85.20703125 55.43295163 85.20703125 50.76171875 C80.72617504 51.85673243 80.72617504 51.85673243 77.5390625 55.01171875 C74.41323329 58.6977887 70.8098507 60.70156843 66.64453125 63.07421875 C65.87689453 63.52861328 65.10925781 63.98300781 64.31835938 64.45117188 C58.6082883 67.76171875 58.6082883 67.76171875 55.20703125 67.76171875 C55.16964844 68.64214844 55.13226563 69.52257812 55.09375 70.4296875 C55.02800781 71.59113281 54.96226562 72.75257812 54.89453125 73.94921875 C54.83652344 75.09777344 54.77851563 76.24632813 54.71875 77.4296875 C54.08139904 81.57976668 52.73978464 84.40582152 49.58203125 87.19921875 C47.56645662 89.48964447 47.5363926 91.79746661 47.20703125 94.76171875 C46.54703125 94.76171875 45.88703125 94.76171875 45.20703125 94.76171875 C45.3153125 96.37626953 45.3153125 96.37626953 45.42578125 98.0234375 C45.51974601 99.49868425 45.6134835 100.97394549 45.70703125 102.44921875 C45.75472656 103.15111328 45.80242187 103.85300781 45.8515625 104.57617188 C46.54519264 115.7237991 46.19170354 126.70673635 45.20703125 137.82421875 C44.09761737 150.27429623 44.09761737 150.27429623 44.20703125 162.76171875 C44.53703125 163.09171875 44.86703125 163.42171875 45.20703125 163.76171875 C45.66833208 167.25116264 46.04426464 170.74582883 46.4140625 174.24609375 C47.27918817 178.08162627 48.54139245 179.92846372 51.20703125 182.76171875 C49.88703125 183.09171875 48.56703125 183.42171875 47.20703125 183.76171875 C46.3871875 182.85808594 45.56734375 181.95445312 44.72265625 181.0234375 C43.63429343 179.83186787 42.54574182 178.64047066 41.45703125 177.44921875 C40.91820312 176.85431641 40.379375 176.25941406 39.82421875 175.64648438 C37.12562646 172.70106961 34.54417985 170.00538419 31.20703125 167.76171875 C31.53703125 166.11171875 31.86703125 164.46171875 32.20703125 162.76171875 C33.19703125 162.43171875 34.18703125 162.10171875 35.20703125 161.76171875 C35.52664748 156.3045675 35.31846257 151.57460999 33.70703125 146.32421875 C31.30842793 138.29856026 31.58080723 131.64039081 34.20703125 123.76171875 C34.1018903 117.55840245 32.1587946 113.12818654 29.4765625 107.5859375 C27.89087949 104.05840269 26.85708508 100.49352025 25.8828125 96.7578125 C25.30422226 94.56356678 25.30422226 94.56356678 23.20703125 92.76171875 C23.05427734 91.80652344 23.05427734 91.80652344 22.8984375 90.83203125 C21.869777 87.7518614 19.94602897 87.14188349 17.14453125 85.63671875 C15.46970328 84.73000964 13.81463602 83.7828833 12.20703125 82.76171875 C12.20703125 80.76171875 12.20703125 80.76171875 13.70703125 79.13671875 C14.20203125 78.68296875 14.69703125 78.22921875 15.20703125 77.76171875 C14.25828125 77.78234375 13.30953125 77.80296875 12.33203125 77.82421875 C9.20703125 77.76171875 9.20703125 77.76171875 7.20703125 76.76171875 C6.99046875 75.15296875 6.99046875 75.15296875 6.76953125 73.51171875 C6.38238812 71.53989802 6.38238812 71.53989802 5.20703125 69.76171875 C2.49432553 68.14783054 -0.2137287 67.01804921 -3.1640625 65.90234375 C-5.7661227 64.77336667 -7.10200151 64.00736632 -8.79296875 61.76171875 C-10.51793576 56.91889694 -11.05553883 51.88183522 -10.79296875 46.76171875 C-10.29837158 46.9306665 -9.80377441 47.09961426 -9.29418945 47.27368164 C-5.77259496 47.96081364 -2.33603197 47.72962892 1.2265625 47.5703125 C2.82225461 47.51206711 4.41795814 47.45413425 6.01367188 47.39648438 C8.51526455 47.29965644 11.0166146 47.19934274 13.51782227 47.09301758 C15.94130393 46.99226851 18.36499053 46.90549482 20.7890625 46.8203125 C21.89723076 46.76731239 21.89723076 46.76731239 23.02778625 46.71324158 C27.84251538 46.55395828 31.63726489 47.21945543 36.20703125 48.76171875 C36.20703125 48.10171875 36.20703125 47.44171875 36.20703125 46.76171875 C38.58203125 44.13671875 38.58203125 44.13671875 41.20703125 41.76171875 C41.86703125 41.76171875 42.52703125 41.76171875 43.20703125 41.76171875 C43.86703125 38.13171875 44.52703125 34.50171875 45.20703125 30.76171875 C36.65189881 27.76250565 28.16085784 25.09442064 19.3125 23.10644531 C14.41341103 21.96809853 14.41341103 21.96809853 12.20703125 19.76171875 C9.95125597 19.1838636 7.69362829 18.811339 5.3984375 18.421875 C2.85418638 17.65542502 2.02186529 16.65177907 0.20703125 14.76171875 C-2.0532422 13.55690385 -2.0532422 13.55690385 -4.48046875 12.57421875 C-5.28871094 12.23003906 -6.09695312 11.88585938 -6.9296875 11.53125 C-7.54457031 11.27730469 -8.15945312 11.02335937 -8.79296875 10.76171875 C-9.1500357 4.45353597 -9.1500357 4.45353597 -7.79296875 1.82421875 C-5.23694737 0.46633239 -2.89615619 -0.06985163 0 0 Z " fill="#060506" transform="translate(115.79296875,22.23828125)"/>
<path d="M0 0 C3.11140622 0.64373922 5.74422854 1.44055843 8.625 2.75 C8.625 3.41 8.625 4.07 8.625 4.75 C9.285 4.75 9.945 4.75 10.625 4.75 C12.60598378 6.80717546 13.52762041 8.33884171 14.1875 11.125 C13.3515268 15.02620828 10.92079479 17.55028375 7.625 19.75 C6.305 19.75 4.985 19.75 3.625 19.75 C2.54974806 22.40228812 1.53043849 25.03368454 0.625 27.75 C2.94872836 27.77673409 2.94872836 27.77673409 5.625 26.75 C7.63579063 24.47150056 9.23775211 22.39813291 10.875 19.875 C11.32029053 19.20259277 11.76558105 18.53018555 12.22436523 17.83740234 C15.776764 12.16353501 16.74389953 7.43479584 16.625 0.75 C17.625 -0.25 17.625 -0.25 19.91015625 -0.34765625 C20.82667969 -0.33605469 21.74320313 -0.32445313 22.6875 -0.3125 C23.60660156 -0.30347656 24.52570313 -0.29445313 25.47265625 -0.28515625 C26.18292969 -0.27355469 26.89320312 -0.26195313 27.625 -0.25 C28.615 1.73 28.615 1.73 29.625 3.75 C29.026875 4.36875 28.42875 4.9875 27.8125 5.625 C25.31436412 9.19376554 24.40133502 12.36285025 23.3359375 16.54296875 C22.625 18.75 22.625 18.75 20.625 20.75 C19.87163882 22.67580991 19.87163882 22.67580991 19.25 24.875 C18.71307322 26.50157229 18.17130288 28.12655276 17.625 29.75 C17.24601562 30.90628906 17.24601562 30.90628906 16.859375 32.0859375 C15.97726092 34.30726114 15.22325414 35.9669766 13.625 37.75 C11.37365359 38.32840916 9.34071929 38.37551165 7.01953125 38.41015625 C2.72191836 39.02009478 -0.21657454 41.93581709 -3.375 44.75 C-2.8955537 48.96912747 -2.20874881 51.54663178 0.625 54.75 C1.16125 54.481875 1.6975 54.21375 2.25 53.9375 C3.9684426 53.0782787 5.7024993 52.25005226 7.4453125 51.44140625 C10.65041184 49.7364824 13.12281144 47.85666446 15.875 45.5 C19.52904571 42.46325901 23.18614194 39.45977808 27 36.625 C27.77085938 36.04492188 28.54171875 35.46484375 29.3359375 34.8671875 C32.25605864 33.44200892 33.58370634 33.72963112 36.625 34.75 C41.02159204 37.68106136 42.54327008 40.82350682 43.6171875 45.89453125 C43.9158165 47.44969029 44.20993193 49.00572146 44.5 50.5625 C45.68569631 56.41275243 46.8290284 61.2710335 50.453125 66.13671875 C52.37715898 68.7854722 53.42480846 71.71793716 54.625 74.75 C57.925 75.08 61.225 75.41 64.625 75.75 C55.96011673 84.66245136 55.96011673 84.66245136 50.8125 85 C49.760625 84.9175 48.70875 84.835 47.625 84.75 C47.68042969 84.19054687 47.73585938 83.63109375 47.79296875 83.0546875 C47.86907069 73.5876061 41.6796525 67.40613005 35.625 60.75 C35.07505371 60.23429443 34.52510742 59.71858887 33.95849609 59.18725586 C32.625 57.75 32.625 57.75 32.625 55.75 C31.305 55.75 29.985 55.75 28.625 55.75 C28.625 56.41 28.625 57.07 28.625 57.75 C27.4925403 58.91677666 26.35369211 60.07787585 25.1875 61.2109375 C18.54853853 67.75031454 13.36889984 74.07776369 12.125 83.5625 C11.53576089 87.31889933 10.47037684 88.3492133 7.625 90.75 C6.39382755 93.21234489 6.4355163 94.97821179 6.34375 97.73046875 C6.30636719 98.73013672 6.26898438 99.72980469 6.23046875 100.75976562 C6.19566406 101.80841797 6.16085938 102.85707031 6.125 103.9375 C5.50231878 122.35272064 5.50231878 122.35272064 0.5625 128.25 C-3.47655312 133.36613396 -6.61445139 138.51368074 -9.54711914 144.32666016 C-11.40965643 148.01025073 -13.45406483 151.29125321 -15.875 154.625 C-20.03165396 161.23070953 -18.84403953 169.26273943 -18.375 176.75 C-24.15625 176.8828125 -24.15625 176.8828125 -26.125 175.6875 C-27.92922675 172.89094853 -28.58763648 169.96002051 -29.375 166.75 C-30.035 166.75 -30.695 166.75 -31.375 166.75 C-31.75 164.6875 -31.75 164.6875 -31.375 161.75 C-30.00179674 159.85124982 -28.5014877 158.18905597 -26.8828125 156.49609375 C-23.446739 152.51701382 -22.67580662 148.02205659 -21.5625 143 C-19.79656684 135.50742195 -17.41931407 129.95887159 -12.0625 124.3125 C-9.56268667 120.51648717 -10.06981519 117.10896039 -10.375 112.75 C-10.45619578 111.29567058 -10.535455 109.84123237 -10.61328125 108.38671875 C-10.84420753 104.17286402 -11.10422791 99.96147301 -11.375 95.75 C-11.973125 95.523125 -12.57125 95.29625 -13.1875 95.0625 C-17.49084433 92.4804934 -18.87695273 87.79964432 -20.5 83.25 C-20.99886719 81.87328125 -20.99886719 81.87328125 -21.5078125 80.46875 C-22.6181511 76.98768844 -23.44005135 73.91008246 -23.234375 70.2421875 C-23.42064826 66.94101134 -24.63846371 65.48754562 -26.625 62.875 C-27.26308594 61.9984375 -27.90117187 61.121875 -28.55859375 60.21875 C-29.15800781 59.4040625 -29.75742187 58.589375 -30.375 57.75 C-35.95308091 50.01867813 -37.5409688 39.15297422 -36.375 29.75 C-34.20385347 23.36427492 -29.58578869 18.39399647 -23.61328125 15.3359375 C-21.73269658 14.51741867 -19.83726545 13.73178642 -17.92578125 12.98828125 C-14.4581539 11.30491544 -12.10564151 9.21128302 -10.375 5.75 C-9.715 5.75 -9.055 5.75 -8.375 5.75 C-8.106875 5.13125 -7.83875 4.5125 -7.5625 3.875 C-5.56865933 0.30707459 -4.0155296 -0.29744664 0 0 Z " fill="#060506" transform="translate(59.375,26.25)"/>
<path d="M0 0 C1.46067199 0.45082469 2.91848032 0.91093537 4.375 1.375 C5.18710938 1.63023438 5.99921875 1.88546875 6.8359375 2.1484375 C9 3 9 3 11 5 C10.27554688 5.59167969 9.55109375 6.18335937 8.8046875 6.79296875 C7.83789062 7.58316406 6.87109375 8.37335938 5.875 9.1875 C4.86953125 10.00734375 3.8640625 10.8271875 2.828125 11.671875 C0.73022647 13.39887434 -1.32942153 15.15031039 -3.375 16.9375 C-5.91468393 18.93296594 -7.96929112 19.96317854 -11 21 C-12.34050052 21.65213539 -13.67661368 22.31379969 -15 23 C-17.31731449 20.45842927 -18.89429061 18.26149166 -20.1875 15.0625 C-20 12 -20 12 -18.5625 10.3203125 C-13.65361146 6.04548873 -10.53125289 4.87728301 -4.09375 4.57421875 C-1.80464706 4.20024451 -1.80464706 4.20024451 -0.71875 1.95703125 C-0.4815625 1.31121094 -0.244375 0.66539063 0 0 Z " fill="#F2F3F2" transform="translate(75,59)"/>
<path d="M0 0 C0.33 0 0.66 0 1 0 C1.99 5.61 2.98 11.22 4 17 C6.0728125 17.6496875 6.0728125 17.6496875 8.1875 18.3125 C15.49796973 20.81072351 15.49796973 20.81072351 18 23 C18.8125 26.6875 18.8125 26.6875 19 30 C21.64 30.33 24.28 30.66 27 31 C26.67 31.66 26.34 32.32 26 33 C24.35 32.67 22.7 32.34 21 32 C20.67 32.66 20.34 33.32 20 34 C18.39479996 33.93976735 16.79065673 33.85091401 15.1875 33.75 C14.29417969 33.70359375 13.40085937 33.6571875 12.48046875 33.609375 C10 33 10 33 8.26953125 31.203125 C6.73405495 28.53848305 5.79858209 25.90996447 4.84375 23 C4.06963362 20.91642251 4.06963362 20.91642251 2.515625 19.125 C0.63844674 16.49307997 0.0174635 14.13250407 -0.75 11 C-1.01296875 9.96875 -1.2759375 8.9375 -1.546875 7.875 C-1.98243948 5.11141845 -1.98103482 3.58418929 -1 1 C-0.67 0.67 -0.34 0.34 0 0 Z " fill="#EEEFEE" transform="translate(104,69)"/>
<path d="M0 0 C0.66 0.99 1.32 1.98 2 3 C0.45717618 5.34868713 -1.10673795 7.67706456 -2.6875 10 C-3.12255859 10.66773438 -3.55761719 11.33546875 -4.00585938 12.0234375 C-5.25193113 13.83254909 -6.42428116 15.46816193 -8 17 C-10.83203125 17.4375 -10.83203125 17.4375 -13 17 C-12.45276317 13.62537285 -11.9451 11.91765 -10 9 C-9.21625 8.690625 -8.4325 8.38125 -7.625 8.0625 C-4.6128336 6.84328979 -3.09059548 5.4639161 -1 3 C-0.67 2.01 -0.34 1.02 0 0 Z " fill="#DDDEDD" transform="translate(73,37)"/>
<path d="M0 0 C2.97 0.495 2.97 0.495 6 1 C6 1.99 6 2.98 6 4 C4.25 5.75 4.25 5.75 2 7 C-0.25 6.6875 -0.25 6.6875 -2 6 C-2 5.01 -2 4.02 -2 3 C-1.34 3 -0.68 3 0 3 C0 2.01 0 1.02 0 0 Z " fill="#171717" transform="translate(77,60)"/>
<path d="M0 0 C0.33 0 0.66 0 1 0 C1.36544911 1.89369084 1.71689175 3.79008782 2.0625 5.6875 C2.25972656 6.74324219 2.45695312 7.79898438 2.66015625 8.88671875 C2.99034946 11.91159216 2.77474558 14.07980511 2 17 C1.67 17 1.34 17 1 17 C0.46748234 15.08654673 -0.05059483 13.1690705 -0.5625 11.25 C-0.85253906 10.18265625 -1.14257812 9.1153125 -1.44140625 8.015625 C-1.97304517 5.14551837 -2.04493382 3.67803398 -1 1 C-0.67 0.67 -0.34 0.34 0 0 Z " fill="#C2C3C2" transform="translate(104,69)"/>
<path d="M0 0 C0.99 0.33 1.98 0.66 3 1 C0.03 3.475 0.03 3.475 -3 6 C-3.33 5.01 -3.66 4.02 -4 3 C-2.1875 1.4375 -2.1875 1.4375 0 0 Z " fill="#D2D2D2" transform="translate(83,63)"/>
</svg>
